<?xml version="1.0" encoding="utf-8"?>
<!-- Generator: Adobe Illustrator 23.0.1, SVG Export Plug-In . SVG Version: 6.00 Build 0)  -->
<svg version="1.1" id="Layer_1" xmlns="http://www.w3.org/2000/svg" xmlns:xlink="http://www.w3.org/1999/xlink" x="0px" y="0px"
	 viewBox="0 0 328.4 329.5" style="enable-background:new 0 0 328.4 329.5;" xml:space="preserve">
<style type="text/css">
	.st0{fill:#5EBD6D;}
</style>
<g>
	<path class="st0" d="M164.2,328.8c-90.4,0-164-73.6-164-164c0-90.4,73.6-164,164-164c90.4,0,164,73.6,164,164
		C328.2,255.2,254.6,328.8,164.2,328.8z M164.2,22.3c-78.6,0-142.5,63.9-142.5,142.5c0,78.6,63.9,142.5,142.5,142.5
		c78.6,0,142.5-63.9,142.5-142.5C306.7,86.2,242.8,22.3,164.2,22.3z"/>
</g>
<g>
	<path class="st0" d="M130.4,200.4c4.7-2,8.7-5.3,11.6-9.6c3-4.4,4.5-9.5,4.5-14.8v-2.8c0-3.5-0.7-7.1-2.1-10.3
		c-2-4.7-5.3-8.7-9.6-11.6c-4.4-3-9.5-4.5-14.7-4.5H77.9c-1,0-2-0.2-2.9-0.6c-1.4-0.6-2.6-1.6-3.4-2.8c-0.9-1.3-1.3-2.7-1.3-4.2
		v-2.9c0-1,0.2-2,0.6-2.9c0.6-1.4,1.6-2.6,2.8-3.4c1.3-0.9,2.7-1.3,4.2-1.3h64v-18.8h-64c-3.5,0-7.1,0.7-10.3,2.1
		c-4.7,2-8.7,5.3-11.6,9.6c-3,4.4-4.5,9.5-4.5,14.8v2.8c0,3.5,0.7,7.1,2.1,10.3c2,4.7,5.3,8.7,9.6,11.6c4.4,3,9.5,4.5,14.7,4.5h42.2
		c1,0,2,0.2,2.9,0.6c1.4,0.6,2.6,1.6,3.4,2.8c0.9,1.3,1.3,2.7,1.3,4.3v2.8c0,1-0.2,2-0.6,2.9c-0.6,1.4-1.6,2.6-2.8,3.4
		c-1.3,0.9-2.7,1.3-4.2,1.3H41.5v18.7h78.6C123.7,202.5,127.1,201.8,130.4,200.4z"/>
	<path class="st0" d="M210.1,265.1h-18.8v-62.7h-11.1c-5.3,0-10.4-1.6-14.8-4.5c-4.3-2.9-7.6-6.9-9.6-11.6
		c-1.4-3.2-2.1-6.8-2.1-10.3V64.4h18.7v111.7c0,1.5,0.4,3,1.3,4.2c0.8,1.2,2,2.3,3.4,2.8c0.9,0.4,1.9,0.6,3,0.6h11.1v-28.3
		c0-5.3,1.6-10.4,4.5-14.8c2.9-4.2,6.9-7.6,11.6-9.6c3.3-1.4,6.7-2.1,10.3-2.1h42.7c5.3,0,10.4,1.6,14.7,4.5
		c4.3,2.9,7.6,6.9,9.6,11.6c1.4,3.2,2.1,6.8,2.1,10.3v20.6c0,5.3-1.6,10.4-4.5,14.8c-2.9,4.2-6.9,7.6-11.6,9.6
		c-3.3,1.4-6.7,2.1-10.3,2.1h-45.2v-18.7h45.2c1.5,0,3-0.4,4.3-1.3c1.2-0.8,2.2-2.1,2.8-3.4c0.4-1,0.6-1.9,0.6-2.9v-20.7
		c0-1.5-0.4-2.9-1.3-4.2c-0.8-1.2-2.1-2.2-3.4-2.8c-0.9-0.4-1.9-0.6-2.9-0.6h-42.7c-1.5,0-2.9,0.4-4.2,1.3c-1.2,0.8-2.3,2.1-2.8,3.4
		c-0.4,0.9-0.6,1.9-0.6,2.9V265.1z"/>
</g>
</svg>
