<?xml version="1.0" encoding="utf-8"?>
<!-- Generator: Adobe Illustrator 23.0.1, SVG Export Plug-In . SVG Version: 6.00 Build 0)  -->
<svg version="1.1" id="Layer_1" xmlns="http://www.w3.org/2000/svg" xmlns:xlink="http://www.w3.org/1999/xlink" x="0px" y="0px"
	 viewBox="0 0 512 512" style="enable-background:new 0 0 512 512;" xml:space="preserve">
<style type="text/css">
	.st0{fill:#FFFFFF;}
</style>
<path class="st0" d="M256,511.8C114.9,511.8,0.2,397.1,0.2,256S114.9,0.2,256,0.2c49.1,0,96.8,14,138,40.4c8.1,5.2,10.5,16,5.3,24.1
	c-5.2,8.1-16,10.5-24.1,5.3C339.6,47.1,298.4,35.1,256,35.1c-121.8,0-221,99.1-221,221c0,121.8,99.1,220.9,221,220.9
	c121.8,0,220.9-99.1,220.9-220.9c0-7.3-0.3-14.5-1-21.6c-0.9-9.6,6.1-18.1,15.7-19c9.6-0.9,18.1,6.1,19,15.7
	c0.8,8.2,1.2,16.5,1.2,25C511.8,397.1,397.1,511.8,256,511.8z"/>
<path class="st0" d="M224.5,356c-4.5-0.1-8.9-1.9-12.2-5.4L110.4,243.3c-6.6-7-6.4-18,0.6-24.7s18-6.4,24.7,0.6l89.9,94.7
	L475.3,76.8c7-6.6,18-6.4,24.7,0.6c6.6,7,6.4,18-0.6,24.7L237,351.3C233.5,354.6,228.9,356.2,224.5,356z"/>
</svg>
